<?xml version="1.0" encoding="UTF-8"?>
<svg xmlns="http://www.w3.org/2000/svg" viewBox="0 0 256 256" role="img" aria-labelledby="title desc">
  <title id="title">Engineering Planning</title>
  <desc id="desc">Plan source-grounded engineering work into the smallest executable and evaluable frontier without artifact ceremony.</desc>
  <rect width="256" height="256" rx="42" fill="#F6F4EF"/>
  <rect x="18" y="18" width="220" height="220" rx="30" fill="none" stroke="#D9D2C7" stroke-width="4"/>
  <rect x="104" y="64" width="48" height="26" rx="10" fill="#F4C4B4" stroke="#0E0E0E" stroke-width="8"/><rect x="54" y="116" width="52" height="26" rx="10" fill="none" stroke="#0E0E0E" stroke-width="8"/><rect x="102" y="116" width="52" height="26" rx="10" fill="none" stroke="#0E0E0E" stroke-width="8"/><rect x="150" y="116" width="52" height="26" rx="10" fill="none" stroke="#0E0E0E" stroke-width="8"/><rect x="54" y="170" width="52" height="22" rx="10" fill="#D9D2C7" stroke="#0E0E0E" stroke-width="8"/><rect x="102" y="170" width="52" height="22" rx="10" fill="#D9D2C7" stroke="#0E0E0E" stroke-width="8"/><rect x="150" y="170" width="52" height="22" rx="10" fill="#D9D2C7" stroke="#0E0E0E" stroke-width="8"/><line x1="128" y1="90" x2="80" y2="116" stroke="#0E0E0E" stroke-width="8" stroke-linecap="round"/><line x1="80" y1="142" x2="80" y2="170" stroke="#0E0E0E" stroke-width="8" stroke-linecap="round"/><line x1="128" y1="90" x2="128" y2="116" stroke="#0E0E0E" stroke-width="8" stroke-linecap="round"/><line x1="128" y1="142" x2="128" y2="170" stroke="#0E0E0E" stroke-width="8" stroke-linecap="round"/><line x1="128" y1="90" x2="176" y2="116" stroke="#0E0E0E" stroke-width="8" stroke-linecap="round"/><line x1="176" y1="142" x2="176" y2="170" stroke="#0E0E0E" stroke-width="8" stroke-linecap="round"/>
</svg>
